<svg xmlns="http://www.w3.org/2000/svg" viewBox="0 0 182 51"><defs><style>.cls-1{fill:#c84b31;}.cls-2{fill:none;stroke:#000;stroke-linecap:round;stroke-linejoin:round;}.cls-3{fill:#346751;}.cls-4{fill:#ecdbba;}</style></defs><g id="Layer_2" data-name="Layer 2"><g id="Layer_2-2" data-name="Layer 2"><ellipse class="cls-1" cx="22.17" cy="22.05" rx="18.03" ry="19.57"/><line class="cls-2" x1="0.5" y1="31.09" x2="42.02" y2="9.05"/><line class="cls-2" x1="1.71" y1="7.41" x2="29.89" y2="50.5"/><line class="cls-2" x1="5.95" y1="45.57" x2="50.5" y2="18.92"/><line class="cls-2" x1="6.86" y1="0.5" x2="43.53" y2="42.61"/><ellipse class="cls-3" cx="90.67" cy="22.05" rx="18.03" ry="19.57"/><line class="cls-2" x1="69" y1="31.09" x2="110.52" y2="9.05"/><line class="cls-2" x1="70.21" y1="7.41" x2="98.39" y2="50.5"/><line class="cls-2" x1="74.45" y1="45.57" x2="119" y2="18.92"/><line class="cls-2" x1="75.36" y1="0.5" x2="112.03" y2="42.61"/><ellipse class="cls-4" cx="153.17" cy="22.05" rx="18.03" ry="19.57"/><line class="cls-2" x1="131.5" y1="31.09" x2="173.02" y2="9.05"/><line class="cls-2" x1="132.71" y1="7.41" x2="160.89" y2="50.5"/><line class="cls-2" x1="136.95" y1="45.57" x2="181.5" y2="18.92"/><line class="cls-2" x1="137.86" y1="0.5" x2="174.53" y2="42.61"/></g></g></svg>